<?xml version="1.0" encoding="utf-8"?>
<svg viewBox="0 0 74.4 74.4" style="enable-background:new 0 0 74.4 74.4;" xmlns="http://www.w3.org/2000/svg">
  <path d="M 67.38 4.118 C 67.292 1.19 66.28 -0.172 62.678 -0.143 C 56.357 -0.403 50.8 0 49.8 0 L 10.3 0 C 8.2 0 6.6 1.6 6.6 3.7 L 6.6 70.7 C 6.6 72.8 8.2 74.4 10.3 74.4 L 64 74.4 C 66.1 74.4 67.7 72.8 67.7 70.7 L 67.7 17.8 C 67.529 16.8 67.483 8.946 67.38 4.118 Z M 11.9 69.2 L 11.9 5 L 42.8 5 L 52.462 4.877 C 62.036 5.496 62.42 3.055 62.236 10.258 L 62.2 24.4 L 62.2 69.1 L 11.9 69.2 Z"/>
  <path d="M 53.158 9.445 L 18.558 9.445 C 17.158 9.445 15.958 10.645 15.958 12.045 C 15.958 13.445 17.158 14.645 18.558 14.645 L 53.158 14.645 C 54.558 14.645 55.758 13.445 55.758 12.045 C 55.858 10.645 54.658 9.445 53.158 9.445 Z"/>
  <path d="M 52.719 61.932 L 18.119 61.932 C 16.719 61.932 15.519 63.132 15.519 64.532 C 15.519 65.932 16.719 67.132 18.119 67.132 L 52.719 67.132 C 54.119 67.132 55.319 65.932 55.319 64.532 C 55.319 63.132 54.219 61.932 52.719 61.932 Z"/>
  <path d="M 17.88 23.043 L 31.816 23.043 C 32.75 23.043 33.55 21.843 33.55 20.443 C 33.55 19.043 32.75 17.843 31.816 17.843 L 17.88 17.843 C 16.946 17.843 16.146 19.043 16.146 20.443 C 16.146 21.843 16.946 23.043 17.88 23.043 Z" style=""/>
  <path d="M 38.357 23.179 L 52.293 23.179 C 53.227 23.179 54.027 21.979 54.027 20.579 C 54.027 19.179 53.227 17.979 52.293 17.979 L 38.357 17.979 C 37.423 17.979 36.623 19.179 36.623 20.579 C 36.623 21.979 37.423 23.179 38.357 23.179 Z" style=""/>
  <path d="M 17.93 30.709 L 31.866 30.709 C 32.8 30.709 33.6 29.509 33.6 28.109 C 33.6 26.709 32.8 25.509 31.866 25.509 L 17.93 25.509 C 16.996 25.509 16.196 26.709 16.196 28.109 C 16.196 29.509 16.996 30.709 17.93 30.709 Z" style=""/>
  <path d="M 38.407 30.845 L 52.343 30.845 C 53.277 30.845 54.077 29.645 54.077 28.245 C 54.077 26.845 53.277 25.645 52.343 25.645 L 38.407 25.645 C 37.473 25.645 36.673 26.845 36.673 28.245 C 36.673 29.645 37.473 30.845 38.407 30.845 Z" style=""/>
  <path d="M 17.929 38.087 L 31.865 38.087 C 32.799 38.087 33.599 36.887 33.599 35.487 C 33.599 34.087 32.799 32.887 31.865 32.887 L 17.929 32.887 C 16.995 32.887 16.195 34.087 16.195 35.487 C 16.195 36.887 16.995 38.087 17.929 38.087 Z" style=""/>
  <path d="M 38.406 38.223 L 52.342 38.223 C 53.276 38.223 54.076 37.023 54.076 35.623 C 54.076 34.223 53.276 33.023 52.342 33.023 L 38.406 33.023 C 37.472 33.023 36.672 34.223 36.672 35.623 C 36.672 37.023 37.472 38.223 38.406 38.223 Z" style=""/>
  <path d="M 17.929 45.817 L 31.865 45.817 C 32.799 45.817 33.599 44.617 33.599 43.217 C 33.599 41.817 32.799 40.617 31.865 40.617 L 17.929 40.617 C 16.995 40.617 16.195 41.817 16.195 43.217 C 16.195 44.617 16.995 45.817 17.929 45.817 Z" style=""/>
  <path d="M 38.406 45.953 L 52.342 45.953 C 53.276 45.953 54.076 44.753 54.076 43.353 C 54.076 41.953 53.276 40.753 52.342 40.753 L 38.406 40.753 C 37.472 40.753 36.672 41.953 36.672 43.353 C 36.672 44.753 37.472 45.953 38.406 45.953 Z" style=""/>
  <path d="M 17.753 53.02 L 31.689 53.02 C 32.623 53.02 33.423 51.82 33.423 50.42 C 33.423 49.02 32.623 47.82 31.689 47.82 L 17.753 47.82 C 16.819 47.82 16.019 49.02 16.019 50.42 C 16.019 51.82 16.819 53.02 17.753 53.02 Z" style=""/>
  <path d="M 38.23 53.156 L 52.166 53.156 C 53.1 53.156 53.9 51.956 53.9 50.556 C 53.9 49.156 53.1 47.956 52.166 47.956 L 38.23 47.956 C 37.296 47.956 36.496 49.156 36.496 50.556 C 36.496 51.956 37.296 53.156 38.23 53.156 Z" style=""/>
  <path d="M 18.017 59.784 L 31.953 59.784 C 32.887 59.784 33.687 58.584 33.687 57.184 C 33.687 55.784 32.887 54.584 31.953 54.584 L 18.017 54.584 C 17.083 54.584 16.283 55.784 16.283 57.184 C 16.283 58.584 17.083 59.784 18.017 59.784 Z" style=""/>
  <path d="M 38.494 59.92 L 52.43 59.92 C 53.364 59.92 54.164 58.72 54.164 57.32 C 54.164 55.92 53.364 54.72 52.43 54.72 L 38.494 54.72 C 37.56 54.72 36.76 55.92 36.76 57.32 C 36.76 58.72 37.56 59.92 38.494 59.92 Z" style=""/>
</svg>